<svg width="56" height="56" viewBox="0 0 56 56" fill="none" xmlns="http://www.w3.org/2000/svg">
<path d="M24.7254 32.5391V30.6105H27.2969V24.8248H27.2567C26.9353 25.327 26.6339 25.548 26.1518 25.9699L24.6049 24.3627L27.5781 21.6105H29.8683V30.6105H32.4397V32.5391H24.7254ZM35.0112 27.3962C35.0112 23.74 32.8013 19.0391 28.5826 19.0391C24.3638 19.0391 22.154 23.74 22.154 27.3962C22.154 31.0525 24.3638 35.7533 28.5826 35.7533C32.8013 35.7533 35.0112 31.0525 35.0112 27.3962ZM45.2969 32.5391C42.4643 32.5391 40.154 34.8493 40.154 37.6819H17.0112C17.0112 34.8493 14.7009 32.5391 11.8683 32.5391V22.2533C14.7009 22.2533 17.0112 19.9431 17.0112 17.1105H40.154C40.154 19.9431 42.4643 22.2533 45.2969 22.2533V32.5391ZM47.8683 15.8248C47.8683 15.1217 47.2857 14.5391 46.5826 14.5391H10.5826C9.87946 14.5391 9.29688 15.1217 9.29688 15.8248V38.9676C9.29688 39.6708 9.87946 40.2533 10.5826 40.2533H46.5826C47.2857 40.2533 47.8683 39.6708 47.8683 38.9676V15.8248Z" fill="white"/>
</svg>
