<svg width="56" height="56" viewBox="0 0 56 56" fill="none" xmlns="http://www.w3.org/2000/svg">
<path d="M44.7958 39.1105C44.7958 39.452 44.4944 39.7533 44.1529 39.7533H14.5815C14.24 39.7533 13.9386 39.452 13.9386 39.1105V23.6819C14.3605 24.1641 14.8225 24.606 15.3248 25.0078C18.1975 27.2176 21.0904 29.4676 23.8828 31.798C25.3895 33.0636 27.2578 34.6105 29.3471 34.6105H29.3672H29.3873C31.4766 34.6105 33.3449 33.0636 34.8516 31.798C37.644 29.4676 40.5368 27.2176 43.4096 25.0078C43.9118 24.606 44.3739 24.1641 44.7958 23.6819V39.1105ZM44.7958 17.9967C44.7958 19.7042 43.1484 21.9342 41.8426 22.9587C39.1507 25.0681 36.4587 27.1975 33.7868 29.327C32.7221 30.1908 30.7935 32.0391 29.3873 32.0391H29.3672H29.3471C27.9408 32.0391 26.0123 30.1908 24.9475 29.327C22.2757 27.1975 19.5837 25.0681 16.8917 22.9587C15.0837 21.5324 13.9386 19.5435 13.9386 17.2533C13.9386 16.9118 14.24 16.6105 14.5815 16.6105H44.1529C44.9163 16.6105 44.7958 17.4944 44.7958 17.9967ZM47.3672 17.2533C47.3672 15.4855 45.9208 14.0391 44.1529 14.0391H14.5815C12.8136 14.0391 11.3672 15.4855 11.3672 17.2533V39.1105C11.3672 40.8783 12.8136 42.3248 14.5815 42.3248H44.1529C45.9208 42.3248 47.3672 40.8783 47.3672 39.1105V17.2533Z" fill="white"/>
</svg>
