<svg width="55" height="56" viewBox="0 0 55 56" fill="none" xmlns="http://www.w3.org/2000/svg">
<path d="M37.7846 35.9632C37.7846 37.3694 36.6194 38.5346 35.2132 38.5346C33.8069 38.5346 32.6417 37.3694 32.6417 35.9632C32.6417 34.5569 33.8069 33.3917 35.2132 33.3917C36.6194 33.3917 37.7846 34.5569 37.7846 35.9632ZM22.356 20.5346C22.356 21.9408 21.1908 23.106 19.7846 23.106C18.3783 23.106 17.2132 21.9408 17.2132 20.5346C17.2132 19.1283 18.3783 17.9632 19.7846 17.9632C21.1908 17.9632 22.356 19.1283 22.356 20.5346ZM42.9275 35.9632C42.9275 31.7042 39.4721 28.2489 35.2132 28.2489C30.9542 28.2489 27.4989 31.7042 27.4989 35.9632C27.4989 40.2221 30.9542 43.6775 35.2132 43.6775C39.4721 43.6775 42.9275 40.2221 42.9275 35.9632ZM40.9989 14.106C40.9989 13.4029 40.4163 12.8203 39.7132 12.8203H36.4989C36.0971 12.8203 35.7154 13.0212 35.4743 13.3426L14.26 41.6283C14.0993 41.8493 13.9989 42.1105 13.9989 42.3917C13.9989 43.0949 14.5815 43.6775 15.2846 43.6775H18.4989C18.9007 43.6775 19.2824 43.4766 19.5234 43.1551L40.7377 14.8694C40.8984 14.6484 40.9989 14.3873 40.9989 14.106ZM27.4989 20.5346C27.4989 16.2757 24.0435 12.8203 19.7846 12.8203C15.5257 12.8203 12.0703 16.2757 12.0703 20.5346C12.0703 24.7935 15.5257 28.2489 19.7846 28.2489C24.0435 28.2489 27.4989 24.7935 27.4989 20.5346Z" fill="white"/>
</svg>
