<svg width="55" height="56" viewBox="0 0 55 56" fill="none" xmlns="http://www.w3.org/2000/svg">
<path d="M23.9965 29.372V28.0863C23.9965 27.7247 24.2777 27.4434 24.6393 27.4434H38.7822C39.1438 27.4434 39.425 27.7247 39.425 28.0863V29.372C39.425 29.7336 39.1438 30.0149 38.7822 30.0149H24.6393C24.2777 30.0149 23.9965 29.7336 23.9965 29.372Z" fill="white"/>
<path d="M24.6393 32.5863H38.7822C39.1438 32.5863 39.425 32.8675 39.425 33.2292V34.5149C39.425 34.8765 39.1438 35.1577 38.7822 35.1577H24.6393C24.2777 35.1577 23.9965 34.8765 23.9965 34.5149V33.2292C23.9965 32.8675 24.2777 32.5863 24.6393 32.5863Z" fill="white"/>
<path d="M24.6393 37.7292H38.7822C39.1438 37.7292 39.425 38.0104 39.425 38.372V39.6577C39.425 40.0193 39.1438 40.3006 38.7822 40.3006H24.6393C24.2777 40.3006 23.9965 40.0193 23.9965 39.6577V38.372C23.9965 38.0104 24.2777 37.7292 24.6393 37.7292Z" fill="white"/>
<path fill-rule="evenodd" clip-rule="evenodd" d="M16.2822 21.3144C12.187 21.3144 8.86719 17.9946 8.86719 13.8994C8.86719 9.80418 12.187 6.48438 16.2822 6.48438C19.7262 6.48438 22.6218 8.83234 23.4556 12.0149H36.2108C37.2755 12.0149 38.7621 12.6376 39.5054 13.3809L45.7733 19.6488C46.5166 20.3921 47.1393 21.8787 47.1393 22.9434V46.0863C47.1393 47.151 46.2755 48.0149 45.2108 48.0149H18.2108C17.146 48.0149 16.2822 47.151 16.2822 46.0863L16.2822 21.3144ZM18.8536 20.8564C21.4761 19.8867 23.4003 17.4766 23.6658 14.5863H34.2822V22.9434C34.2822 24.0082 35.146 24.872 36.2108 24.872H44.5679V45.4434H18.8536V20.8564ZM37.6773 15.189C37.5367 15.0483 37.1951 14.8675 36.8536 14.747V22.3006H44.4072C44.2867 21.9591 44.1059 21.6175 43.9652 21.4769L37.6773 15.189ZM17.2822 14.8994H21.2822V12.8994H17.2822V8.89941H15.2822V12.8994H11.2822V14.8994H15.2822V18.8994H17.2822V14.8994Z" fill="white"/>
</svg>
