<svg width="55" height="55" viewBox="0 0 55 55" fill="none" xmlns="http://www.w3.org/2000/svg">
<path d="M33.1429 24.1429C33.1429 29.1049 29.1049 33.1429 24.1429 33.1429C19.1808 33.1429 15.1429 29.1049 15.1429 24.1429C15.1429 19.1808 19.1808 15.1429 24.1429 15.1429C29.1049 15.1429 33.1429 19.1808 33.1429 24.1429ZM43.4286 40.8571C43.4286 40.1741 43.1473 39.5112 42.6853 39.0491L35.7946 32.1585C37.4219 29.808 38.2857 26.9955 38.2857 24.1429C38.2857 16.3281 31.9576 10 24.1429 10C16.3281 10 10 16.3281 10 24.1429C10 31.9576 16.3281 38.2857 24.1429 38.2857C26.9955 38.2857 29.808 37.4219 32.1585 35.7946L39.0491 42.6652C39.5112 43.1473 40.1741 43.4286 40.8571 43.4286C42.2634 43.4286 43.4286 42.2634 43.4286 40.8571Z" fill="white"/>
</svg>
