<svg width="18" height="21" viewBox="0 0 18 21" fill="none" xmlns="http://www.w3.org/2000/svg">
<path d="M16.8136 4.60826L13.3315 1.12612C12.9185 0.71317 12.0926 0.367188 11.5011 0.367188H1.50112C0.909598 0.367188 0.429688 0.847099 0.429688 1.43862V19.2958C0.429688 19.8873 0.909598 20.3672 1.50112 20.3672H16.5011C17.0926 20.3672 17.5725 19.8873 17.5725 19.2958V6.43862C17.5725 5.8471 17.2266 5.02121 16.8136 4.60826ZM11.8583 1.88504C12.048 1.95201 12.2377 2.05246 12.3158 2.13058L15.8092 5.62388C15.8873 5.70201 15.9877 5.89174 16.0547 6.08147H11.8583V1.88504ZM16.144 18.9386H1.85826V1.79576H10.4297V6.43862C10.4297 7.03013 10.9096 7.51005 11.5011 7.51005H16.144V18.9386ZM4.7154 9.29576V10.01C4.7154 10.2109 4.87165 10.3672 5.07255 10.3672H12.9297C13.1306 10.3672 13.2868 10.2109 13.2868 10.01V9.29576C13.2868 9.09487 13.1306 8.93862 12.9297 8.93862H5.07255C4.87165 8.93862 4.7154 9.09487 4.7154 9.29576ZM12.9297 11.7958H5.07255C4.87165 11.7958 4.7154 11.952 4.7154 12.1529V12.8672C4.7154 13.0681 4.87165 13.2243 5.07255 13.2243H12.9297C13.1306 13.2243 13.2868 13.0681 13.2868 12.8672V12.1529C13.2868 11.952 13.1306 11.7958 12.9297 11.7958ZM12.9297 14.6529H5.07255C4.87165 14.6529 4.7154 14.8092 4.7154 15.01V15.7243C4.7154 15.9252 4.87165 16.0815 5.07255 16.0815H12.9297C13.1306 16.0815 13.2868 15.9252 13.2868 15.7243V15.01C13.2868 14.8092 13.1306 14.6529 12.9297 14.6529Z" fill="#272733"/>
</svg>
