<svg width="21" height="20" viewBox="0 0 21 20" fill="none" xmlns="http://www.w3.org/2000/svg">
<path fill-rule="evenodd" clip-rule="evenodd" d="M3.78145 9.92764C3.78145 8.94359 3.86465 8.31908 5.91972 6.79781C7.62111 5.53832 13.0746 1.23438 13.0746 1.23438V8.41904H17.2219V18.7596H5.07679C4.36437 18.7596 3.78125 18.1813 3.78125 17.4748L3.78145 9.92771V9.92764Z" fill="#3E9CDC"/>
<path fill-rule="evenodd" clip-rule="evenodd" d="M13.074 8.42188V12.5849L5.45312 17.7334L15.0884 14.6245V8.42188H13.074Z" fill="black" fill-opacity="0.2"/>
<path fill-rule="evenodd" clip-rule="evenodd" d="M9.59025 8.20526C10.0359 7.67864 10.6868 7.49278 11.0442 7.79014C11.4016 8.08757 11.3301 8.7556 10.8845 9.28221C10.4391 9.80876 9.78796 9.99443 9.43057 9.697C9.07318 9.39964 9.14482 8.73174 9.59025 8.20519V8.20526Z" fill="#231F20"/>
</svg>
