<svg width="21" height="20" viewBox="0 0 21 20" fill="none" xmlns="http://www.w3.org/2000/svg">
<g clip-path="url(#clip0_993_26)">
<g clip-path="url(#clip1_993_26)">
<path d="M16.9086 13.4548C16.9687 13.8424 16.8418 14.0065 16.7135 14.0065C16.5853 14.0065 16.3996 13.8489 16.1925 13.5362C15.9855 13.2234 15.9147 12.8758 16.0149 12.6975C16.0526 12.6357 16.1135 12.5904 16.1849 12.5709C16.2563 12.5514 16.3327 12.5593 16.3983 12.5928C16.7389 12.7169 16.8725 13.2222 16.9086 13.4548ZM15.0209 14.3051C15.4311 14.6397 15.5553 15.0378 15.3389 15.3182C15.273 15.3966 15.189 15.4589 15.0936 15.5002C14.9982 15.5415 14.8942 15.5606 14.7898 15.5559C14.561 15.5563 14.3393 15.479 14.1633 15.3376C13.7919 15.0235 13.6824 14.5131 13.9255 14.2236C13.9792 14.1642 14.0462 14.1175 14.1215 14.087C14.1968 14.0566 14.2782 14.0432 14.3597 14.0479C14.6045 14.0558 14.8386 14.1468 15.0209 14.3051ZM14.3369 17.5357C16.099 17.5357 18.0107 18.1197 20.1281 19.934C20.3392 20.115 20.6211 19.8901 20.4367 19.664C18.3567 17.1247 16.429 16.6401 14.5146 16.2318C12.1688 15.7304 10.9611 14.4524 10.1155 13.0503C9.94847 12.7712 9.87232 12.8203 9.85762 13.1795C9.84358 13.712 9.88521 14.2445 9.98186 14.769C9.88701 14.769 9.79083 14.769 9.69598 14.769C8.49378 14.769 7.31858 14.4241 6.31899 13.7781C5.3194 13.132 4.54031 12.2137 4.08025 11.1393C3.62019 10.065 3.49982 8.88275 3.73436 7.7422C3.96889 6.60165 4.54781 5.55399 5.39789 4.7317C6.24797 3.90941 7.33104 3.34943 8.51014 3.12256C9.68924 2.89569 10.9114 3.01213 12.0221 3.45715C13.1328 3.90217 14.0821 4.65578 14.75 5.62269C15.4179 6.5896 15.7744 7.72638 15.7744 8.88927C15.775 9.11767 15.7621 9.34591 15.7357 9.57287C15.0953 9.49487 14.4482 9.48317 13.8053 9.53798C13.5741 9.55736 13.6075 9.6672 13.7812 9.69175C15.7851 10.042 17.1718 11.2424 17.487 13.4328C17.4882 13.4439 17.4929 13.4544 17.5005 13.4627C17.5082 13.4711 17.5183 13.4769 17.5296 13.4793C17.5408 13.4817 17.5526 13.4807 17.5632 13.4763C17.5738 13.4719 17.5827 13.4643 17.5886 13.4548C18.631 11.7692 19.0674 9.79728 18.8297 7.84664C18.592 5.89599 17.6936 4.07629 16.2746 2.67135C14.8556 1.26642 12.9958 0.355257 10.9853 0.0799925C8.97478 -0.195273 6.92664 0.180836 5.1603 1.14965C3.39396 2.11847 2.00876 3.62552 1.22076 5.43573C0.432754 7.24594 0.286257 9.25753 0.804117 11.1567C1.32198 13.0559 2.47508 14.7359 4.08355 15.9347C5.69203 17.1335 7.66544 17.7837 9.69598 17.7838C11.0386 17.7876 12.3758 17.5344 14.3369 17.5344V17.5357Z" fill="#3E9CDC"/>
</g>
</g>
<defs>
<clipPath id="clip0_993_26">
<rect width="20" height="20" fill="white" transform="translate(0.5)"/>
</clipPath>
<clipPath id="clip1_993_26">
<rect width="20" height="20" fill="white" transform="translate(0.5)"/>
</clipPath>
</defs>
</svg>
