<svg width="21" height="20" viewBox="0 0 21 20" fill="none" xmlns="http://www.w3.org/2000/svg">
<path d="M15.1787 12.29C15.1787 12.9404 15.0557 13.5117 14.8096 14.0039C14.5635 14.4961 14.2324 14.9033 13.8164 15.2256C13.3242 15.6123 12.7822 15.8877 12.1904 16.0518C11.6045 16.2158 10.8574 16.2979 9.94922 16.2979H4.71094V3.21094H9.33398C10.2949 3.21094 11.0215 3.24902 11.5137 3.3252C12.0117 3.39551 12.4775 3.54785 12.9111 3.78223C13.3799 4.03418 13.7285 4.37109 13.957 4.79297C14.1914 5.21484 14.3086 5.70117 14.3086 6.25195C14.3086 6.89062 14.1475 7.45898 13.8252 7.95703C13.5088 8.45508 13.0693 8.82129 12.5068 9.05566V9.12598C13.3154 9.2959 13.9629 9.64453 14.4492 10.1719C14.9355 10.6934 15.1787 11.3994 15.1787 12.29ZM10.9688 6.91113C10.9688 6.7002 10.9131 6.4834 10.8018 6.26074C10.6963 6.03809 10.5293 5.87695 10.3008 5.77734C10.084 5.68359 9.82617 5.63379 9.52734 5.62793C9.23438 5.61621 8.79492 5.61035 8.20898 5.61035H7.98047V8.37891H8.39355C8.95605 8.37891 9.34863 8.37305 9.57129 8.36133C9.7998 8.34961 10.0342 8.28809 10.2744 8.17676C10.5381 8.05371 10.7197 7.88379 10.8193 7.66699C10.9189 7.4502 10.9688 7.19824 10.9688 6.91113ZM11.7949 12.2285C11.7949 11.8242 11.7129 11.5078 11.5488 11.2793C11.3848 11.0508 11.1387 10.8779 10.8105 10.7607C10.6113 10.6846 10.3359 10.6436 9.98438 10.6377C9.63867 10.626 9.17285 10.6201 8.58691 10.6201H7.98047V13.8984H8.15625C9.01172 13.8984 9.60352 13.8926 9.93164 13.8809C10.2598 13.8691 10.5938 13.79 10.9336 13.6436C11.2324 13.5146 11.4492 13.3271 11.584 13.0811C11.7246 12.8291 11.7949 12.5449 11.7949 12.2285Z" fill="#3E9CDC"/>
</svg>
