<svg width="21" height="20" viewBox="0 0 21 20" fill="none" xmlns="http://www.w3.org/2000/svg">
<path d="M16.7489 14.8527C16.7489 14.995 16.6233 15.1205 16.481 15.1205H4.1596C4.0173 15.1205 3.89174 14.995 3.89174 14.8527V8.42411C4.06752 8.625 4.26004 8.80915 4.46931 8.97656C5.66629 9.89732 6.87165 10.8348 8.03516 11.8058C8.66295 12.3331 9.44141 12.9777 10.3119 12.9777H10.3203H10.3287C11.1992 12.9777 11.9777 12.3331 12.6055 11.8058C13.769 10.8348 14.9743 9.89732 16.1713 8.97656C16.3806 8.80915 16.5731 8.625 16.7489 8.42411V14.8527ZM16.7489 6.05525C16.7489 6.76674 16.0625 7.69587 15.5184 8.12277C14.3968 9.00167 13.2751 9.88895 12.1618 10.7762C11.7182 11.1362 10.9146 11.9062 10.3287 11.9062H10.3203H10.3119C9.726 11.9062 8.92243 11.1362 8.4788 10.7762C7.36551 9.88895 6.24386 9.00167 5.12221 8.12277C4.36886 7.52846 3.89174 6.69978 3.89174 5.74554C3.89174 5.60324 4.0173 5.47768 4.1596 5.47768H16.481C16.7991 5.47768 16.7489 5.84598 16.7489 6.05525ZM17.8203 5.74554C17.8203 5.00893 17.2176 4.40625 16.481 4.40625H4.1596C3.42299 4.40625 2.82031 5.00893 2.82031 5.74554V14.8527C2.82031 15.5893 3.42299 16.192 4.1596 16.192H16.481C17.2176 16.192 17.8203 15.5893 17.8203 14.8527V5.74554Z" fill="#3E9CDC"/>
</svg>
